C:\Users\israe\Dropbox\PhDWork\ExperimentalData\subject1\100\P1S100W03_filtered35.mot
nRows=11
nColumns=28

name C:\Users\israe\Dropbox\PhDWork\ExperimentalData\subject1\100\P1S100W03_filtered35.mot
datacolumns 28
datarows 11
range 1.1750000000 1.1850000000
endheader
time	ground_force_1_vx	ground_force_1_vy	ground_force_1_vz	ground_force_1_px	ground_force_1_py	ground_force_1_pz	ground_moment_1_mx	ground_moment_1_my	ground_moment_1_mz	ground_force_2_vx	ground_force_2_vy	ground_force_2_vz	ground_force_2_px	ground_force_2_py	ground_force_2_pz	ground_moment_2_mx	ground_moment_2_my	ground_moment_2_mz	ground_force_3_vx	ground_force_3_vy	ground_force_3_vz	ground_force_3_px	ground_force_3_py	ground_force_3_pz	ground_moment_3_mx	ground_moment_3_my	ground_moment_3_mz
        1.1750000000	        4.5981177266	      124.2258445309	       -7.9318601388	        0.2000000000	        0.0000000000	       -0.9030000000	      -12.7653246651	       -0.1712519171	        5.7807724100	       21.6242832683	      720.3949190774	     -122.8443076741	        0.2000000000	        0.0000000000	       -0.3000000000	       38.5325425565	       -8.1773357240	      -31.7974975614	       -0.0000000000	        0.0000000000	        0.0000000000	        0.2000000000	       -0.0000000000	        0.3030000000	        0.0000000000	       -0.0000000000	        0.0000000000	
        1.1760000000	        5.3482258884	      135.1085769430	       -9.5756967670	        0.2000000000	        0.0000000000	       -0.9030000000	      -13.7499056239	       -0.0363187040	        6.2999004469	       21.2171540218	      718.0286335846	     -123.7005814223	        0.2000000000	        0.0000000000	       -0.3000000000	       38.5967774306	       -8.1804922461	      -31.6439774854	       -0.0000000000	        0.0000000000	        0.0000000000	        0.2000000000	       -0.0000000000	        0.3030000000	        0.0000000000	       -0.0000000000	        0.0000000000	
        1.1770000000	        6.0449335126	      146.2692810024	      -11.0141966923	        0.2000000000	        0.0000000000	       -0.9030000000	      -14.7478456909	        0.0817516274	        6.8362796153	       20.8010730581	      715.5575117058	     -124.5602893371	        0.2000000000	        0.0000000000	       -0.3000000000	       38.6538416272	       -8.1826324919	      -31.4845842638	       -0.0000000000	        0.0000000000	        0.0000000000	        0.2000000000	       -0.0000000000	        0.3030000000	        0.0000000000	       -0.0000000000	        0.0000000000	
        1.1780000000	        6.6802070422	      157.6279477418	      -12.1902242590	        0.2000000000	        0.0000000000	       -0.9030000000	      -15.7498541893	        0.1795605166	        7.3859917836	       20.3750252614	      712.9889467917	     -125.4212158543	        0.2000000000	        0.0000000000	       -0.3000000000	       38.7034342864	       -8.1838092787	      -31.3192492137	       -0.0000000000	        0.0000000000	        0.0000000000	        0.2000000000	       -0.0000000000	        0.3030000000	        0.0000000000	       -0.0000000000	        0.0000000000	
        1.1790000000	        7.2520881598	      169.0986820776	      -13.0543213055	        0.2000000000	        0.0000000000	       -0.9030000000	      -16.7462636823	        0.2548248979	        7.9445211025	       19.9377141981	      710.3296408443	     -126.2795477179	        0.2000000000	        0.0000000000	       -0.3000000000	       38.7450957848	       -8.1841485789	      -31.1479833802	       -0.0000000000	        0.0000000000	        0.0000000000	        0.2000000000	       -0.0000000000	        0.3030000000	        0.0000000000	       -0.0000000000	        0.0000000000	
        1.1800000000	        7.7636006009	      180.5912387505	      -13.5648263812	        0.2000000000	        0.0000000000	       -0.9030000000	      -17.7276196841	        0.3061419883	        8.5069406401	       19.4876992445	      707.5859653333	     -127.1303344685	        0.2000000000	        0.0000000000	       -0.3000000000	       38.7783959989	       -8.1836926593	      -30.9708116525	       -0.0000000000	        0.0000000000	        0.0000000000	        0.2000000000	       -0.0000000000	        0.3030000000	        0.0000000000	       -0.0000000000	        0.0000000000	
        1.1810000000	        8.2210580010	      192.0152369870	      -13.6873521749	        0.2000000000	        0.0000000000	       -0.9030000000	      -18.6848157018	        0.3327572854	        9.0682113268	       19.0235983253	      704.7632522336	     -127.9684276281	        0.2000000000	        0.0000000000	       -0.3000000000	       38.8032681892	       -8.1822607816	      -30.7876788021	       -0.0000000000	        0.0000000000	        0.0000000000	        0.2000000000	       -0.0000000000	        0.3030000000	        0.0000000000	       -0.0000000000	       -0.0000000000	
        1.1820000000	        8.6329264902	      203.2853541795	      -13.3942321172	        0.2000000000	        0.0000000000	       -0.9030000000	      -19.6090275137	        0.3343632729	        9.6232965517	       18.5443947060	      701.8645942770	     -128.7891878908	        0.2000000000	        0.0000000000	       -0.3000000000	       38.8199910841	       -8.1794024706	      -30.5984398392	        0.0000000000	        0.0000000000	        0.0000000000	        0.2000000000	       -0.0000000000	        0.3030000000	       -0.0000000000	       -0.0000000000	       -0.0000000000	
        1.1830000000	        9.0089325477	      214.3239552730	      -12.6645971854	        0.2000000000	        0.0000000000	       -0.9030000000	      -20.4916742069	        0.3109836793	       10.1671586685	       18.0498549508	      698.8898635895	     -129.5886197716	        0.2000000000	        0.0000000000	       -0.3000000000	       38.8288195818	       -8.1745068960	      -30.4029599769	        0.0000000000	        0.0000000000	       -0.0000000000	        0.2000000000	       -0.0000000000	        0.3030000000	       -0.0000000000	        0.0000000000	       -0.0000000000	
        1.1840000000	        9.3586330785	      225.0615213270	      -11.4847210520	        0.2000000000	        0.0000000000	       -0.9030000000	      -21.3246692040	        0.2629391661	       10.6948661509	       17.5405409497	      695.8339514974	     -130.3631443341	        0.2000000000	        0.0000000000	       -0.3000000000	       38.8297499944	       -8.1669958141	      -30.2012249527	        0.0000000000	        0.0000000000	       -0.0000000000	        0.2000000000	       -0.0000000000	        0.3030000000	       -0.0000000000	        0.0000000000	       -0.0000000000	
        1.1850000000	        9.6902549400	      235.4366758510	       -9.8484771370	        0.2000000000	        0.0000000000	       -0.9030000000	      -22.1010601218	        0.1908070959	       11.2018901358	       17.0172331763	      692.6853402798	     -131.1093713919	        0.2000000000	        0.0000000000	       -0.3000000000	       38.8225313173	       -8.1564346533	      -29.9933623824	        0.0000000000	        0.0000000000	       -0.0000000000	        0.2000000000	       -0.0000000000	        0.3030000000	       -0.0000000000	        0.0000000000	       -0.0000000000	
